                                                                        S      1
,,8HTEST 1.0,8HTEST 1.0,7Hunknown,7Hunknown,32,38,7,99,15,,1.,2,2HMM,1, G      1
0.08,15H20210410.120653,0.01,10000.,7Hunknown,7Hunknown,11,0,15H20210410G      2
.110104;                                                                G      3
     186       1                                                00000000D      1
     186            -177       1       0                               0D      2
     514       2                                                00010000D      3
     514                       2       1                               0D      4
     510       4                                                00010000D      5
     510            -177       1       1                               0D      6
     510       5                                                00010000D      7
     510            -177       1       1                               0D      8
     510       6                                                00010000D      9
     510            -177       1       1                               0D     10
     510       7                                                00010000D     11
     510            -177       1       1                               0D     12
     510       8                                                00010000D     13
     510            -177       1       1                               0D     14
     510       9                                                00010000D     15
     510            -177       1       1                               0D     16
     510      10                                                00010000D     17
     510            -177       1       1                               0D     18
     510      11                                                00010000D     19
     510            -177       1       1                               0D     20
     510      12                                                00010000D     21
     510            -177       1       1                               0D     22
     510      13                                                00010000D     23
     510            -177       1       1                               0D     24
     510      14                                                00010000D     25
     510            -177       1       1                               0D     26
     510      15                                                00010000D     27
     510            -177       1       1                               0D     28
     510      16                                                00010000D     29
     510            -177       1       1                               0D     30
     510      17                                                00010000D     31
     510            -177       1       1                               0D     32
     510      18                                                00010000D     33
     510            -177       1       1                               0D     34
     508      19                                                00010000D     35
     508                       1       1                               0D     36
     508      20                                                00010000D     37
     508                       1       1                               0D     38
     508      21                                                00010000D     39
     508                       1       1                               0D     40
     508      22                                                00010000D     41
     508                       2       1                               0D     42
     508      24                                                00010000D     43
     508                       2       1                               0D     44
     508      26                                                00010000D     45
     508                       2       1                               0D     46
     508      28                                                00010000D     47
     508                       1       1                               0D     48
     508      29                                                00010000D     49
     508                       1       1                               0D     50
     508      30                                                00010000D     51
     508                       1       1                               0D     52
     508      31                                                00010000D     53
     508                       2       1                               0D     54
     508      33                                                00010000D     55
     508                       1       1                               0D     56
     508      34                                                00010000D     57
     508                       1       1                               0D     58
     508      35                                                00010000D     59
     508                       1       1                               0D     60
     508      36                                                00010000D     61
     508                       2       1                               0D     62
     508      38                                                00010000D     63
     508                       1       1                               0D     64
     508      39                                                00010000D     65
     508                       3       1                               0D     66
     126      42                                                00010000D     67
     126       0               5       0                               0D     68
     126      47                                                00010000D     69
     126       0               8       0                               0D     70
     126      55                                                00010000D     71
     126       0               3       0                               0D     72
     126      58                                                00010000D     73
     126       0               3       0                               0D     74
     126      61                                                00010000D     75
     126       0               4       0                               0D     76
     126      65                                                00010000D     77
     126       0               2       0                               0D     78
     126      67                                                00010000D     79
     126       0               2       0                               0D     80
     126      69                                                00010000D     81
     126       0               4       0                               0D     82
     126      73                                                00010000D     83
     126       0               2       0                               0D     84
     126      75                                                00010000D     85
     126       0               4       0                               0D     86
     126      79                                                00010000D     87
     126       0               3       0                               0D     88
     126      82                                                00010000D     89
     126       0               5       0                               0D     90
     126      87                                                00010000D     91
     126       0               4       0                               0D     92
     126      91                                                00010000D     93
     126       0               2       0                               0D     94
     126      93                                                00010000D     95
     126       0               3       0                               0D     96
     126      96                                                00010000D     97
     126       0               8       0                               0D     98
     126     104                                                00010000D     99
     126       0               4       0                               0D    100
     126     108                                                00010000D    101
     126       0               2       0                               0D    102
     126     110                                                00010000D    103
     126       0               3       0                               0D    104
     126     113                                                00010000D    105
     126       0               2       0                               0D    106
     126     115                                                00010000D    107
     126       0               4       0                               0D    108
     126     119                                                00010000D    109
     126       0               3       0                               0D    110
     126     122                                                00010000D    111
     126       0               7       0                               0D    112
     126     129                                                00010000D    113
     126       0               2       0                               0D    114
     126     131                                                00010000D    115
     126       0               4       0                               0D    116
     126     135                                                00010000D    117
     126       0               4       0                               0D    118
     126     139                                                00010000D    119
     126       0               2       0                               0D    120
     126     141                                                00010000D    121
     126       0               3       0                               0D    122
     126     144                                                00010000D    123
     126       0               4       0                               0D    124
     126     148                                                00010000D    125
     126       0               5       0                               0D    126
     126     153                                                00010000D    127
     126       0               2       0                               0D    128
     126     155                                                00010000D    129
     126       0               4       0                               0D    130
     126     159                                                00010000D    131
     126       0               3       0                               0D    132
     126     162                                                00010000D    133
     126       0               2       0                               0D    134
     126     164                                                00010000D    135
     126       0               2       0                               0D    136
     126     166                                                00010000D    137
     126       0               4       0                               0D    138
     126     170                                                00010000D    139
     126       0               6       0                               0D    140
     128     176                                                00010000D    141
     128       0    -177      13       0                               0D    142
     128     189                                                00010000D    143
     128       0    -177       6       0                               0D    144
     128     195                                                00010000D    145
     128       0    -177       4       0                               0D    146
     128     199                                                00010000D    147
     128       0    -177       5       0                               0D    148
     128     204                                                00010000D    149
     128       0    -177       7       0                               0D    150
     128     211                                                00010000D    151
     128       0    -177       8       0                               0D    152
     128     219                                                00010000D    153
     128       0    -177       9       0                               0D    154
     128     228                                                00010000D    155
     128       0    -177       6       0                               0D    156
     128     234                                                00010000D    157
     128       0    -177       7       0                               0D    158
     128     241                                                00010000D    159
     128       0    -177       6       0                               0D    160
     128     247                                                00010000D    161
     128       0    -177       6       0                               0D    162
     128     253                                                00010000D    163
     128       0    -177       3       0                               0D    164
     128     256                                                00010000D    165
     128       0    -177       6       0                               0D    166
     128     262                                                00010000D    167
     128       0    -177      11       0                               0D    168
     128     273                                                00010000D    169
     128       0    -177       8       0                               0D    170
     502     281                                                00010000D    171
     502                      12       1                               0D    172
     504     293                                                00010001D    173
     504                      11       1                               0D    174
     406     304                                                00000000D    175
     406                       1      15                               0D    176
     314     305                                                00000200D    177
     314                       2       0                               0D    178
186,3,1,0,0,1,175;                                                     1P      1
514,15,5,1,7,1,9,1,11,1,13,1,15,1,17,1,19,1,21,1,23,1,25,1,27,1,       3P      2
29,1,31,1,33,1;                                                        3P      3
510,141,1,1,35;                                                        5P      4
510,143,1,1,37;                                                        7P      5
510,145,2,1,39,41;                                                     9P      6
510,147,1,1,43;                                                       11P      7
510,149,1,1,45;                                                       13P      8
510,151,1,1,47;                                                       15P      9
510,153,1,1,49;                                                       17P     10
510,155,1,1,51;                                                       19P     11
510,157,1,1,53;                                                       21P     12
510,159,1,1,55;                                                       23P     13
510,161,1,1,57;                                                       25P     14
510,163,1,1,59;                                                       27P     15
510,165,1,1,61;                                                       29P     16
510,167,1,1,63;                                                       31P     17
510,169,1,1,65;                                                       33P     18
508,2,0,173,1,1,0,0,173,2,0,0;                                        35P     19
508,2,0,173,3,0,0,0,173,2,1,0;                                        37P     20
508,2,0,173,1,0,0,0,173,3,1,0;                                        39P     21
508,8,0,173,4,1,0,0,173,5,1,0,0,173,6,1,0,0,173,7,1,0,0,173,8,1,      41P     22
0,0,173,9,1,0,0,173,10,1,0,0,173,11,1,0;                              41P     23
508,8,0,173,7,0,0,0,173,12,0,0,0,173,13,0,0,0,173,14,0,0,0,173,       43P     24
15,0,0,0,173,16,0,0,0,173,17,0,0,0,173,18,0,0;                        43P     25
508,5,0,173,15,1,0,0,173,19,0,0,0,173,20,0,0,0,173,21,0,0,0,173,      45P     26
22,1,0;                                                               45P     27
508,4,0,173,23,1,0,0,173,21,1,0,0,173,24,1,0,0,173,25,1,0;            47P     28
508,4,0,173,19,1,0,0,173,14,1,0,0,173,26,1,0,0,173,27,0,0;            49P     29
508,4,0,173,20,1,0,0,173,27,1,0,0,173,28,1,0,0,173,24,0,0;            51P     30
508,5,0,173,13,1,0,0,173,29,1,0,0,173,25,0,0,0,173,28,0,0,0,173,      53P     31
26,0,0;                                                               53P     32
508,4,0,173,30,1,0,0,173,10,0,0,0,173,31,1,0,0,173,32,1,0;            55P     33
508,4,0,173,8,0,0,0,173,18,1,0,0,173,33,1,0,0,173,34,0,0;             57P     34
508,4,0,173,9,0,0,0,173,34,1,0,0,173,35,1,0,0,173,31,0,0;             59P     35
508,5,0,173,17,1,0,0,173,36,1,0,0,173,32,0,0,0,173,35,0,0,0,173,      61P     36
33,0,0;                                                               61P     37
508,3,0,173,5,0,0,0,173,4,0,0,0,173,37,1,0;                           63P     38
508,10,0,173,6,0,0,0,173,37,0,0,0,173,11,0,0,0,173,30,0,0,0,173,      65P     39
36,0,0,0,173,16,1,0,0,173,22,0,0,0,173,23,0,0,0,173,29,0,0,0,         65P     40
173,12,1,0;                                                           65P     41
126,4,2,0,0,0,0,0.,0.,0.,1.5707963267949,1.5707963267949,             67P     42
3.14159265358979,3.14159265358979,3.14159265358979,1.,                67P     43
0.707106781186548,1.,0.707106781186547,1.,0.,7500.,12500.,0.,         67P     44
-5000.,12500.,0.,-5000.,3.54096181102999D-12,0.,-5000.,-12500.,       67P     45
0.,7499.99999999999,-12500.,0.,3.14159265358979,0.,0.,0.;             67P     46
126,4,2,0,0,0,0,-6.28318530717959,-6.28318530717959,                  69P     47
-6.28318530717959,-4.71238898038469,-4.71238898038469,                69P     48
-3.14159265358979,-3.14159265358979,-3.14159265358979,1.,             69P     49
0.707106781186548,1.,0.707106781186548,1.,3.06161699786838D-12,       69P     50
7500.,12500.,12500.,7500.,12500.,12500.,7500.,                        69P     51
-2.81071744501871D-13,12500.,7500.,-12500.,                           69P     52
-2.53445011319533D-12,7500.,-12500.,-6.28318530717959,                69P     53
-3.14159265358979,0.,0.,0.;                                           69P     54
126,1,1,0,0,1,0,-1250.,-1250.,1250.,1250.,1.,1.,                      71P     55
-1.53080849893419D-12,7500.,12500.,1.53080849893419D-12,7500.,        71P     56
-12500.,-1250.,1250.,0.,0.,0.;                                        71P     57
126,2,2,0,0,0,0,0.,0.,0.,0.567588218416656,0.567588218416656,         73P     58
0.567588218416656,1.,0.959999999999999,1.,0.,-1070.,52.5,0.,          73P     59
-1167.65625,52.5,0.,-1250.,0.,0.,0.567588218416656,0.,0.,0.;          73P     60
126,2,2,0,0,0,0,-0.567588218416656,-0.567588218416656,                75P     61
-0.567588218416656,0.,0.,0.,1.,0.959999999999999,1.,0.,-1250.,        75P     62
0.,0.,-1167.65625,-52.5,0.,-1070.,-52.5,-0.567588218416656,0.,        75P     63
0.,0.,0.;                                                             75P     64
126,1,1,0,0,1,0,-53.5,-53.5,53.5,53.5,1.,1.,0.,-1070.,-52.5,0.,       77P     65
0.,-52.5,-53.5,53.5,0.,0.,0.;                                         77P     66
126,1,1,0,0,1,0,-317.75,-317.75,-307.55,-307.55,1.,1.,0.,0.,          79P     67
-52.5,0.,0.,49.4999999999999,-317.75,-307.55,0.,0.,0.;                79P     68
126,1,1,0,0,1,0,-271.441970879347,-271.441970879347,                  81P     69
-259.549115881492,-259.549115881492,1.,1.,0.,0.,                      81P     70
49.4999999999999,0.,79.9999999999997,137.5,-271.441970879347,         81P     71
-259.549115881492,0.,0.,0.;                                           81P     72
126,1,1,0,0,1,0,58.5,58.5,63.5,63.5,1.,1.,0.,80.,137.5,0.,30.,        83P     73
137.5,58.5,63.5,0.,0.,0.;                                             83P     74
126,1,1,0,0,1,0,178.92120596284,178.92120596284,                      85P     75
200.026706401359,200.026706401359,1.,1.,0.,30.,137.5,0.,              85P     76
-163.181818181818,52.4999999999994,178.92120596284,                   85P     77
200.026706401359,0.,0.,0.;                                            85P     78
126,1,1,0,0,1,0,-37.1818181818182,-37.1818181818182,53.5,53.5,        87P     79
1.,1.,0.,-163.181818181818,52.5,0.,-1070.,52.5,                       87P     80
-37.1818181818182,53.5,0.,0.,0.;                                      87P     81
126,2,2,0,0,0,0,0.580772776678962,0.580772776678962,                  89P     82
0.580772776678962,1.5707963267949,1.5707963267949,                    89P     83
1.5707963267949,1.,0.879963116249968,1.,43.892042254122,0.,           89P     84
-28.8051840258375,28.3417625327449,0.,-52.5,3.2146978477618D-15,      89P     85
0.,-52.5,0.580772776678962,1.5707963267949,0.,0.,0.;                  89P     86
126,1,1,0,0,1,0,0.274999999999999,0.274999999999999,                  91P     87
0.566421562896844,0.566421562896844,1.,1.,41.3682574873302,0.,        91P     88
-27.3480762113533,43.8920422541225,0.,-28.8051840258375,              91P     89
0.274999999999999,0.566421562896844,0.,0.,0.;                         91P     90
126,1,1,0,0,1,0,0.,0.,0.3,0.3,1.,1.,42.8682574873301,0.,-24.75,       93P     91
41.3682574873301,0.,-27.3480762113533,0.,0.3,0.,0.,0.;                93P     92
126,1,1,0,0,1,0,-0.575,-0.575,-0.275,-0.275,1.,1.,                    95P     93
45.4663336986833,0.,-26.25,42.8682574873299,0.,-24.75,-0.575,         95P     94
-0.275,0.,0.,0.;                                                      95P     95
126,4,2,0,0,0,0,-1.51362232571423,-1.51362232571423,                  97P     96
-1.51362232571423,-0.495011775057968,-0.495011775057968,              97P     97
0.523598775598298,0.523598775598298,0.523598775598298,1.,             97P     98
0.873083445784395,1.,0.873083445784395,1.,3.,0.,                      97P     99
52.4142156289684,32.2705603307838,0.,50.7388746944793,                97P    100
46.1980636031234,0.,24.9397056783308,60.125566875463,0.,              97P    101
-0.859463337817723,45.466333698683,0.,-26.25,-1.51362232571423,       97P    102
0.523598775598298,0.,0.,0.;                                           97P    103
126,1,1,0,0,1,0,0.274999999999999,0.274999999999999,                  99P    104
0.566421562896845,0.566421562896845,1.,1.,2.99999999999955,0.,        99P    105
49.5,2.99999999999955,0.,52.4142156289684,0.274999999999999,          99P    106
0.566421562896845,0.,0.,0.;                                           99P    107
126,1,1,0,0,1,0,0.,0.,0.3,0.3,1.,1.,0.,0.,49.5,3.,0.,49.5,0.,        101P    108
0.3,0.,0.,0.;                                                        101P    109
126,1,1,0,0,1,0,0.,0.,11.8928549978548,11.8928549978548,1.,1.,       103P    110
119.078493020361,80.,-68.75,42.8682574873302,                        103P    111
1.77635683940025D-14,-24.75,0.,11.8928549978548,0.,0.,0.;            103P    112
126,1,1,0,0,1,0,0.,0.,5.,5.,1.,1.,119.078493020361,30.,-68.75,       105P    113
119.078493020361,80.,-68.75,0.,5.,0.,0.,0.;                          105P    114
126,1,1,0,0,1,0,0.74490001547715,0.74490001547715,                   107P    115
21.8504004539963,21.8504004539963,1.,1.,45.4663336986834,            107P    116
-163.181818181818,-26.25,119.078493020361,30.,-68.75,                107P    117
0.74490001547715,21.8504004539963,0.,0.,0.;                          107P    118
126,1,1,0,0,1,0,37.1818181818182,37.1818181818182,53.5,53.5,1.,      109P    119
1.,45.4663336986835,-163.181818181818,-26.25,45.4663336986835,       109P    120
0.,-26.25,37.1818181818182,53.5,0.,0.,0.;                            109P    121
126,2,2,0,0,0,0,3.08441865250913,3.08441865250913,                   111P    122
3.08441865250913,3.14159265358979,3.14159265358979,                  111P    123
3.14159265358979,1.,0.999591419525626,1.,43.892042254122,            111P    124
-163.376782661435,-28.8051840258375,44.7157204521568,                111P    125
-163.181818181818,-27.5501002798176,45.466333698683,                 111P    126
-163.181818181818,-26.25,3.08441865250913,3.14159265358979,0.,       111P    127
0.,0.;                                                               111P    128
126,1,1,0,0,1,0,0.,0.,0.3,0.3,1.,1.,119.078493020361,30.,-68.75,     113P    129
117.578493020361,30.,-71.3480762113533,0.,0.3,0.,0.,0.;              113P    130
126,1,1,0,0,1,0,-21.8504004539963,-21.8504004539963,                 115P    131
-0.723599755707447,-0.723599755707447,1.,1.,117.57849302036,30.,     115P    132
-71.3480762113533,43.8920422541215,-163.376782661435,                115P    133
-28.8051840258375,-21.8504004539963,-0.723599755707447,0.,0.,0.;     115P    134
126,1,1,0,0,1,0,-11.8928549978548,-11.8928549978548,0.,0.,1.,1.,     117P    135
41.3682574873293,1.77635683940025D-14,-27.3480762113533,             117P    136
117.57849302036,80.,-71.3480762113533,-11.8928549978548,0.,0.,       117P    137
0.,0.;                                                               117P    138
126,1,1,0,0,1,0,0.,0.,0.3,0.3,1.,1.,119.078493020361,80.,-68.75,     119P    139
117.578493020361,80.,-71.3480762113533,0.,0.3,0.,0.,0.;              119P    140
126,1,1,0,0,1,0,-5.,-5.,0.,0.,1.,1.,117.57849302036,80.,             121P    141
-71.3480762113533,117.57849302036,30.,-71.3480762113533,-5.,0.,      121P    142
0.,0.,0.;                                                            121P    143
126,1,1,0,0,1,0,-53.5,-53.5,-37.1623217338565,-37.1623217338565,     123P    144
1.,1.,43.8920422541219,0.,-28.8051840258375,43.8920422541219,        123P    145
-163.376782661435,-28.8051840258375,-53.5,-37.1623217338565,0.,      123P    146
0.,0.;                                                               123P    147
126,2,2,0,0,0,0,-0.0571740010806631,-0.0571740010806631,             125P    148
-0.0571740010806631,0.,0.,0.,1.,0.999591419525602,1.,3.,             125P    149
-163.376782661435,52.4142156289684,1.50122649305241,                 125P    150
-163.181818181818,52.5,0.,-163.181818181818,52.5,                    125P    151
-0.0571740010806631,0.,0.,0.,0.;                                     125P    152
126,1,1,0,0,1,0,0.,0.,0.3,0.3,1.,1.,0.,30.,137.5,3.,30.,137.5,       127P    153
0.,0.3,0.,0.,0.;                                                     127P    154
126,1,1,0,0,1,0,-21.8504004539963,-21.8504004539963,                 129P    155
-0.723599755707447,-0.723599755707447,1.,1.,2.99999999999955,        129P    156
30.,137.5,2.99999999999955,-163.376782661435,52.4142156289685,       129P    157
-21.8504004539963,-0.723599755707447,0.,0.,0.;                       129P    158
126,1,1,0,0,1,0,-11.8928549978548,-11.8928549978548,0.,0.,1.,1.,     131P    159
2.99999999999955,1.77635683940025D-14,49.5,2.99999999999955,80.,     131P    160
137.5,-11.8928549978548,0.,0.,0.,0.;                                 131P    161
126,1,1,0,0,1,0,0.,0.,0.3,0.3,1.,1.,0.,80.,137.5,3.,80.,137.5,       133P    162
0.,0.3,0.,0.,0.;                                                     133P    163
126,1,1,0,0,1,0,-5.,-5.,0.,0.,1.,1.,2.99999999999955,80.,137.5,      135P    164
2.99999999999955,30.,137.5,-5.,0.,0.,0.,0.;                          135P    165
126,1,1,0,0,1,0,-53.5,-53.5,-37.1623217338565,-37.1623217338565,     137P    166
1.,1.,2.99999999999955,0.,52.4142156289684,2.99999999999955,         137P    167
-163.376782661435,52.4142156289684,-53.5,-37.1623217338565,0.,       137P    168
0.,0.;                                                               137P    169
126,4,2,0,0,0,0,-1.5707963267949,-1.5707963267949,                   139P    170
-1.5707963267949,0.,0.,1.5707963267949,1.5707963267949,              139P    171
1.5707963267949,1.,0.707106781186548,1.,0.707106781186548,1.,        139P    172
3.2146978477618D-15,-1070.,52.5,52.5,-1070.,52.5,52.5,-1070.,0.,     139P    173
52.5,-1070.,-52.5,3.2146978477618D-15,-1070.,-52.5,                  139P    174
-1.5707963267949,1.5707963267949,0.,0.,0.;                           139P    175
128,4,2,2,2,0,0,0,0,0,-1.5707963267949,-1.5707963267949,             141P    176
-1.5707963267949,0.,0.,1.5707963267949,1.5707963267949,              141P    177
1.5707963267949,-1.5707963267949,-1.5707963267949,                   141P    178
-1.5707963267949,0.,0.,0.,1.,0.707106781186548,1.,                   141P    179
0.707106781186548,1.,0.707106781186548,0.5,0.707106781186548,        141P    180
0.5,0.707106781186548,1.,0.707106781186548,1.,0.707106781186548,     141P    181
1.,0.,7500.,12500.,0.,-5000.,12500.,0.,-5000.,0.,0.,-5000.,          141P    182
-12500.,0.,7500.,-12500.,7.65404249467096D-13,7500.,12500.,          141P    183
12500.,-5000.,12500.,12500.,-5000.,0.,12500.,-5000.,-12500.,         141P    184
7.65404249467096D-13,7500.,-12500.,7.65404249467096D-13,7500.,       141P    185
12500.,12500.,7500.,12500.,12500.,7500.,0.,12500.,7500.,-12500.,     141P    186
7.65404249467096D-13,7500.,-12500.,-1.5707963267949,                 141P    187
1.5707963267949,-1.5707963267949,0.;                                 141P    188
128,1,1,1,1,0,0,1,0,0,-1250.001,-1250.001,1250.001,1250.001,         143P    189
-0.00100000000025345,-0.00100000000025345,1250.001,1250.001,1.,      143P    190
1.,1.,1.,-0.0100000000025345,7500.,-12500.01,                        143P    191
-0.0100000000025345,7500.,12500.01,12500.01,7500.,-12500.01,         143P    192
12500.01,7500.,12500.01,-1250.001,1250.001,-0.00100000000025345,     143P    193
1250.001;                                                            143P    194
128,1,1,1,1,0,0,1,0,0,-625.001,-625.001,625.001,625.001,             145P    195
-1875.001,-1875.001,625.001,625.001,1.,1.,1.,1.,0.,7500.01,          145P    196
-12500.01,0.,-5000.01,-12500.01,0.,7500.01,12500.01,0.,-5000.01,     145P    197
12500.01,-625.001,625.001,-1875.001,625.001;                         145P    198
128,1,1,1,1,0,0,1,0,0,-5.251,-5.251,5.24242156289684,                147P    199
5.24242156289684,-0.001,-0.001,6.0135566875463,6.0135566875463,      147P    200
1.,1.,1.,1.,-0.01,0.,52.4242156289684,-0.01,0.,-52.51,               147P    201
60.135566875463,0.,52.4242156289684,60.135566875463,0.,-52.51,       147P    202
-5.251,5.24242156289684,-0.001,6.0135566875463;                      147P    203
128,1,1,1,1,0,0,1,0,0,-11.8191818181818,-11.8191818181818,           149P    204
12.501,12.501,-4.40100000000002,-4.40100000000002,                   149P    205
4.40100000000001,4.40100000000001,1.,1.,1.,1.,42.8595972332921,      149P    206
-163.191818181818,-24.7449999999999,42.8595972332921,80.01,          149P    207
-24.7449999999999,119.087153274399,-163.191818181818,-68.755,        149P    208
119.087153274399,80.01,-68.755,-11.8191818181818,12.501,             149P    209
-4.40100000000002,4.40100000000001;                                  149P    210
128,1,1,1,1,0,0,1,0,0,-0.00100000000000067,-0.00100000000000067,     151P    211
21.1278006982889,21.1278006982889,-0.001,-0.001,                     151P    212
0.301000000000053,0.301000000000053,1.,1.,1.,1.,45.393554435412,     151P    213
-163.38593581176,-26.196433867375,119.086980839071,                  151P    214
30.0091531503242,-68.7433534390335,43.8835544354117,                 151P    215
-163.38593581176,-28.8118305868044,117.576980839071,                 151P    216
30.0091531503242,-71.3587501584629,-0.00100000000000067,             151P    217
21.1278006982889,-0.001,0.301000000000053;                           151P    218
128,1,1,1,1,0,0,1,0,0,-0.00100000000004829,-0.00100000000004829,     153P    219
11.8938549978548,11.8938549978548,-0.00100000000000799,              153P    220
-0.00100000000000799,0.30100000000004,0.30100000000004,1.,1.,1.,     153P    221
1.,119.089901089369,80.00672672794,-68.7450394463291,                153P    222
42.8668494183214,-0.00672672794028799,-24.7376400455949,             153P    223
117.579901089369,80.00672672794,-71.3604361657585,                   153P    224
41.3568494183212,-0.00672672794028807,-27.3530367650243,             153P    225
-0.00100000000004829,11.8938549978548,-0.00100000000000799,          153P    226
0.30100000000004;                                                    153P    227
128,1,1,1,1,0,0,1,0,0,-0.001,-0.001,5.001,5.001,-0.001,-0.001,       155P    228
0.301000000000046,0.301000000000046,1.,1.,1.,1.,                     155P    229
119.083493020361,29.99,-68.7413397459621,119.083493020361,80.01,     155P    230
-68.7413397459621,117.573493020361,29.99,-71.3567364653915,          155P    231
117.573493020361,80.01,-71.3567364653915,-0.001,5.001,-0.001,        155P    232
0.301000000000046;                                                   155P    233
128,1,1,1,1,0,0,1,0,0,-4.40100000000001,-4.40100000000001,4.401,     157P    234
4.401,-11.8386782661435,-11.8386782661435,12.501,12.501,1.,1.,       157P    235
1.,1.,41.3595972332914,-163.386782661435,-27.3430762113533,          157P    236
117.587153274398,-163.386782661435,-71.3530762113533,                157P    237
41.3595972332914,80.01,-27.3430762113533,117.587153274398,80.01,     157P    238
-71.3530762113533,-4.40100000000001,4.401,-11.8386782661435,         157P    239
12.501;                                                              157P    240
128,1,1,1,1,0,0,1,0,0,-0.001,-0.001,21.1278006982888,                159P    241
21.1278006982888,-0.001,-0.001,0.301,0.301,1.,1.,1.,1.,-0.01,        159P    242
-163.38593581176,52.4101882428258,-0.01,30.0091531503242,            159P    243
137.504027386143,3.01,-163.38593581176,52.4101882428258,3.01,        159P    244
30.0091531503242,137.504027386143,-0.001,21.1278006982888,           159P    245
-0.001,0.301;                                                        159P    246
128,1,1,1,1,0,0,1,0,0,-0.00100000000000817,-0.00100000000000817,     161P    247
11.8938549978548,11.8938549978548,-0.001,-0.001,0.301,0.301,1.,      161P    248
1.,1.,1.,-0.01,80.00672672794,137.507399400734,-0.01,                161P    249
-0.00672672794001807,49.492600599266,3.01,80.00672672794,            161P    250
137.507399400734,3.01,-0.00672672794001807,49.492600599266,          161P    251
-0.00100000000000817,11.8938549978548,-0.001,0.301;                  161P    252
128,1,1,1,1,0,0,1,0,0,-0.001,-0.001,5.001,5.001,-0.001,-0.001,       163P    253
0.301,0.301,1.,1.,1.,1.,-0.01,29.99,137.5,-0.01,80.01,137.5,         163P    254
3.01,29.99,137.5,3.01,80.01,137.5,-0.001,5.001,-0.001,0.301;         163P    255
128,1,1,1,1,0,0,1,0,0,-4.401,-4.401,4.401,4.401,                     165P    256
-11.8386782661435,-11.8386782661435,12.501,12.501,1.,1.,1.,1.,       165P    257
2.99999999999955,-163.386782661435,49.49,2.99999999999955,           165P    258
-163.386782661435,137.51,2.99999999999955,80.01,49.49,               165P    259
2.99999999999955,80.01,137.51,-4.401,4.401,-11.8386782661435,        165P    260
12.501;                                                              165P    261
128,2,4,2,2,0,0,0,0,0,-0.567588218416656,-0.567588218416656,         167P    262
-0.567588218416656,0.,0.,0.,0.,0.,0.,1.5707963267949,                167P    263
1.5707963267949,3.14159265358979,3.14159265358979,                   167P    264
3.14159265358979,1.,0.959999999999999,1.,0.707106781186548,          167P    265
0.678822509939085,0.707106781186548,1.,0.959999999999999,1.,         167P    266
0.707106781186548,0.678822509939085,0.707106781186548,1.,            167P    267
0.959999999999999,1.,0.,-1250.,0.,0.,-1167.65625,52.5,0.,-1070.,     167P    268
52.5,0.,-1250.,0.,52.5,-1167.65625,52.5,52.5,-1070.,52.5,0.,         167P    269
-1250.,0.,52.5,-1167.65625,0.,52.5,-1070.,0.,0.,-1250.,0.,52.5,      167P    270
-1167.65625,-52.5,52.5,-1070.,-52.5,0.,-1250.,0.,0.,-1167.65625,     167P    271
-52.5,0.,-1070.,-52.5,-0.567588218416656,0.,0.,3.14159265358979;     167P    272
128,1,4,1,2,0,0,0,0,0,-10.1904761904762,-10.1904761904762,           169P    273
10.1904761904762,10.1904761904762,0.,0.,0.,1.5707963267949,          169P    274
1.5707963267949,3.14159265358979,3.14159265358979,                   169P    275
3.14159265358979,1.,1.,0.707106781186548,0.707106781186548,1.,       169P    276
1.,0.707106781186548,0.707106781186548,1.,1.,0.,-1070.,52.5,0.,      169P    277
0.,52.5,52.5,-1070.,52.5,52.5,0.,52.5,52.5,-1070.,0.,52.5,0.,0.,     169P    278
52.5,-1070.,-52.5,52.5,0.,-52.5,0.,-1070.,-52.5,0.,0.,-52.5,         169P    279
-10.1904761904762,10.1904761904762,0.,3.14159265358979;              169P    280
502,25,0.,7500.,12500.,1.13686837721616D-12,7500.,-12500.,0.,        171P    281
-1070.,52.5,0.,-1250.,0.,0.,-1070.,-52.5,0.,0.,-52.5,0.,0.,49.5,     171P    282
0.,80.,137.5,0.,30.,137.5,0.,-163.181818181818,52.5,                 171P    283
43.8920422541219,0.,-28.8051840258375,41.3682574873292,0.,           171P    284
-27.3480762113533,42.8682574873301,0.,-24.75,45.4663336986835,       171P    285
0.,-26.25,2.99999999999955,0.,52.4142156289684,2.99999999999955,     171P    286
0.,49.5,119.078493020361,80.,-68.75,119.078493020361,30.,-68.75,     171P    287
45.4663336986835,-163.181818181818,-26.25,43.8920422541219,          171P    288
-163.376782661435,-28.8051840258375,117.57849302036,30.,             171P    289
-71.3480762113533,117.57849302036,80.,-71.3480762113533,             171P    290
2.99999999999955,-163.376782661435,52.4142156289684,                 171P    291
2.99999999999955,30.,137.5,2.99999999999955,80.,137.5;               171P    292
504,37,67,171,1,171,2,69,171,1,171,2,71,171,1,171,2,73,171,3,        173P    293
171,4,75,171,4,171,5,77,171,5,171,6,79,171,6,171,7,81,171,7,171,     173P    294
8,83,171,8,171,9,85,171,9,171,10,87,171,10,171,3,89,171,11,171,      173P    295
6,91,171,12,171,11,93,171,13,171,12,95,171,14,171,13,97,171,15,      173P    296
171,14,99,171,16,171,15,101,171,7,171,16,103,171,17,171,13,105,      173P    297
171,18,171,17,107,171,19,171,18,109,171,19,171,14,111,171,20,        173P    298
171,19,113,171,18,171,21,115,171,21,171,20,117,171,12,171,22,        173P    299
119,171,17,171,22,121,171,22,171,21,123,171,11,171,20,125,171,       173P    300
23,171,10,127,171,9,171,24,129,171,24,171,23,131,171,16,171,25,      173P    301
133,171,8,171,25,135,171,25,171,24,137,171,15,171,23,139,171,3,      173P    302
171,5;                                                               173P    303
406,1,5HMODEL;                                                       175P    304
314,62.7450980392157,62.7450980392157,62.7450980392157,13HSteel      177P    305
- Satin;                                                             177P    306
S      1G      3D    178P    306                                        T      1
