                                                                        S      1
,,3HNEW,3HNEW,7Hunknown,7Hunknown,32,38,7,99,15,,1.,2,2HMM,1,0.08,15H202G      1
10515.113749,0.01,10000.,7Hunknown,7Hunknown,11,0,15H20210515.103743;   G      2
     186       1                                                00000000D      1
     186            -139       1       0                               0D      2
     514       2                                                00010000D      3
     514                       1       1                               0D      4
     510       3                                                00010000D      5
     510            -139       1       1                               0D      6
     510       4                                                00010000D      7
     510            -139       1       1                               0D      8
     510       5                                                00010000D      9
     510            -139       1       1                               0D     10
     510       6                                                00010000D     11
     510            -139       1       1                               0D     12
     510       7                                                00010000D     13
     510            -139       1       1                               0D     14
     510       8                                                00010000D     15
     510            -139       1       1                               0D     16
     510       9                                                00010000D     17
     510            -139       1       1                               0D     18
     510      10                                                00010000D     19
     510            -139       1       1                               0D     20
     510      11                                                00010000D     21
     510            -139       1       1                               0D     22
     510      12                                                00010000D     23
     510            -139       1       1                               0D     24
     510      13                                                00010000D     25
     510            -139       1       1                               0D     26
     510      14                                                00010000D     27
     510            -139       1       1                               0D     28
     508      15                                                00010000D     29
     508                       1       1                               0D     30
     508      16                                                00010000D     31
     508                       1       1                               0D     32
     508      17                                                00010000D     33
     508                       1       1                               0D     34
     508      18                                                00010000D     35
     508                       1       1                               0D     36
     508      19                                                00010000D     37
     508                       1       1                               0D     38
     508      20                                                00010000D     39
     508                       1       1                               0D     40
     508      21                                                00010000D     41
     508                       1       1                               0D     42
     508      22                                                00010000D     43
     508                       1       1                               0D     44
     508      23                                                00010000D     45
     508                       1       1                               0D     46
     508      24                                                00010000D     47
     508                       1       1                               0D     48
     508      25                                                00010000D     49
     508                       1       1                               0D     50
     508      26                                                00010000D     51
     508                       1       1                               0D     52
     508      27                                                00010000D     53
     508                       3       1                               0D     54
     126      30                                                00010000D     55
     126       0               5       0                               0D     56
     126      35                                                00010000D     57
     126       0               8       0                               0D     58
     126      43                                                00010000D     59
     126       0               5       0                               0D     60
     126      48                                                00010000D     61
     126       0               8       0                               0D     62
     126      56                                                00010000D     63
     126       0               4       0                               0D     64
     126      60                                                00010000D     65
     126       0               8       0                               0D     66
     126      68                                                00010000D     67
     126       0               4       0                               0D     68
     126      72                                                00010000D     69
     126       0               6       0                               0D     70
     126      78                                                00010000D     71
     126       0               9       0                               0D     72
     126      87                                                00010000D     73
     126       0               6       0                               0D     74
     126      93                                                00010000D     75
     126       0               5       0                               0D     76
     126      98                                                00010000D     77
     126       0              10       0                               0D     78
     126     108                                                00010000D     79
     126       0               5       0                               0D     80
     126     113                                                00010000D     81
     126       0              10       0                               0D     82
     126     123                                                00010000D     83
     126       0               3       0                               0D     84
     126     126                                                00010000D     85
     126       0               3       0                               0D     86
     126     129                                                00010000D     87
     126       0               3       0                               0D     88
     126     132                                                00010000D     89
     126       0               3       0                               0D     90
     126     135                                                00010000D     91
     126       0               3       0                               0D     92
     126     138                                                00010000D     93
     126       0               3       0                               0D     94
     126     141                                                00010000D     95
     126       0               3       0                               0D     96
     126     144                                                00010000D     97
     126       0               3       0                               0D     98
     126     147                                                00010000D     99
     126       0               3       0                               0D    100
     126     150                                                00010000D    101
     126       0               3       0                               0D    102
     126     153                                                00010000D    103
     126       0               3       0                               0D    104
     126     156                                                00010000D    105
     126       0               3       0                               0D    106
     126     159                                                00010000D    107
     126       0               3       0                               0D    108
     128     162                                                00010000D    109
     128       0    -139      19       0                               0D    110
     128     181                                                00010000D    111
     128       0    -139      15       0                               0D    112
     128     196                                                00010000D    113
     128       0    -139      21       0                               0D    114
     128     217                                                00010000D    115
     128       0    -139      18       0                               0D    116
     128     235                                                00010000D    117
     128       0    -139      24       0                               0D    118
     128     259                                                00010000D    119
     128       0    -139       5       0                               0D    120
     128     264                                                00010000D    121
     128       0    -139       6       0                               0D    122
     128     270                                                00010000D    123
     128       0    -139       6       0                               0D    124
     128     276                                                00010000D    125
     128       0    -139       6       0                               0D    126
     128     282                                                00010000D    127
     128       0    -139       6       0                               0D    128
     128     288                                                00010000D    129
     128       0    -139       6       0                               0D    130
     128     294                                                00010000D    131
     128       0    -139       6       0                               0D    132
     502     300                                                00010000D    133
     502                      14       1                               0D    134
     504     314                                                00010001D    135
     504                       8       1                               0D    136
     406     322                                                00000000D    137
     406                       1      15                               0D    138
     314     323                                                00000200D    139
     314                       2       0                               0D    140
186,3,1,0,0,1,137;                                                     1P      1
514,12,5,1,7,1,9,1,11,1,13,1,15,1,17,1,19,1,21,1,23,1,25,1,27,1;       3P      2
510,109,1,1,29;                                                        5P      3
510,111,1,1,31;                                                        7P      4
510,113,1,1,33;                                                        9P      5
510,115,1,1,35;                                                       11P      6
510,117,1,1,37;                                                       13P      7
510,119,1,1,39;                                                       15P      8
510,121,1,1,41;                                                       17P      9
510,123,1,1,43;                                                       19P     10
510,125,1,1,45;                                                       21P     11
510,127,1,1,47;                                                       23P     12
510,129,1,1,49;                                                       25P     13
510,131,2,1,51,53;                                                    27P     14
508,4,0,135,1,1,0,0,135,2,1,0,0,135,3,1,0,0,135,4,1,0;                29P     15
508,4,0,135,2,0,0,0,135,5,0,0,0,135,6,0,0,0,135,7,0,0;                31P     16
508,4,0,135,8,1,0,0,135,9,1,0,0,135,10,1,0,0,135,6,1,0;               33P     17
508,4,0,135,9,0,0,0,135,11,0,0,0,135,12,1,0,0,135,13,0,0;             35P     18
508,2,0,135,14,0,0,0,135,12,0,0;                                      37P     19
508,2,0,135,4,0,0,0,135,15,0,0;                                       39P     20
508,4,0,135,16,0,0,0,135,17,1,0,0,135,18,0,0,0,135,19,0,0;            41P     21
508,4,0,135,20,0,0,0,135,19,1,0,0,135,21,0,0,0,135,22,0,0;            43P     22
508,4,0,135,23,0,0,0,135,22,1,0,0,135,24,0,0,0,135,25,0,0;            45P     23
508,4,0,135,26,0,0,0,135,25,1,0,0,135,27,0,0,0,135,17,0,0;            47P     24
508,4,0,135,27,1,0,0,135,24,1,0,0,135,21,1,0,0,135,18,1,0;            49P     25
508,4,0,135,26,1,0,0,135,16,1,0,0,135,20,1,0,0,135,23,1,0;            51P     26
508,10,0,135,15,1,0,0,135,3,0,0,0,135,7,1,0,0,135,10,0,0,0,135,       53P     27
13,1,0,0,135,14,1,0,0,135,11,1,0,0,135,8,0,0,0,135,5,1,0,0,135,       53P     28
1,0,0;                                                                53P     29
126,2,2,0,0,0,0,-1.5707963267949,-1.5707963267949,                    55P     30
-1.5707963267949,0.,0.,0.,1.,0.707106781186564,1.,                    55P     31
1207.79891967773,449.701080322266,-13.,1207.79891967773,              55P     32
449.701080322266,-23.,1197.79891967773,449.701080322266,-23.,         55P     33
-1.5707963267949,0.,0.,0.,0.;                                         55P     34
126,4,2,0,0,0,0,-1.5707963267949,-1.5707963267949,                    57P     35
-1.5707963267949,2.22044604925031D-16,2.22044604925031D-16,           57P     36
1.5707963267949,1.5707963267949,1.5707963267949,1.,                   57P     37
0.70710678118655,1.,0.70710678118655,1.,1197.79891967773,             57P     38
449.701080322266,-23.,1197.79891967773,426.701080322266,-23.,         57P     39
1197.79891967773,426.701080322266,-5.09002128042336D-16,              57P     40
1197.79891967773,426.701080322266,23.,1197.79891967773,               57P     41
449.701080322266,23.,-1.5707963267949,1.5707963267949,0.,0.,0.;       57P     42
126,2,2,0,0,0,0,0.,0.,0.,1.5707963267949,1.5707963267949,             59P     43
1.5707963267949,1.,0.707106781186564,1.,1197.79891967773,             59P     44
449.701080322266,23.,1207.79891967773,449.701080322266,23.,           59P     45
1207.79891967773,449.701080322266,13.,0.,1.5707963267949,0.,0.,       59P     46
0.;                                                                   59P     47
126,4,2,0,0,0,0,-1.5707963267949,-1.5707963267949,                    61P     48
-1.5707963267949,-2.22044604925031D-16,-2.22044604925031D-16,         61P     49
1.5707963267949,1.5707963267949,1.5707963267949,1.,                   61P     50
0.707106781186556,1.,0.707106781186556,1.,1207.79891967773,           61P     51
449.701080322266,13.,1207.79891967773,436.701080322266,13.,           61P     52
1207.79891967773,436.701080322266,-2.80154578997944D-16,              61P     53
1207.79891967773,436.701080322266,-13.,1207.79891967773,              61P     54
449.701080322266,-13.,-1.5707963267949,1.5707963267949,0.,0.,0.;      61P     55
126,1,1,0,0,1,0,-34.2972638271011,-34.2972638271011,                  63P     56
34.405558120998,34.405558120998,1.,1.,510.770700196743,               63P     57
449.701080322266,-23.,1197.79891967773,449.701080322266,-23.,         63P     58
-34.2972638271011,34.405558120998,0.,0.,0.;                           63P     59
126,4,2,0,0,0,0,-1.5707963267949,-1.5707963267949,                    65P     60
-1.5707963267949,0.,0.,1.5707963267949,1.5707963267949,               65P     61
1.5707963267949,1.,0.707106781186544,1.,0.707106781186544,1.,         65P     62
510.770700196743,449.701080322266,23.,510.770700196743,               65P     63
426.701080322266,23.,510.770700196743,426.701080322266,               65P     64
1.73472347597681D-17,510.770700196743,426.701080322266,-23.,          65P     65
510.770700196743,449.701080322266,-23.,-1.5707963267949,              65P     66
1.5707963267949,0.,0.,0.;                                             65P     67
126,1,1,0,0,1,0,-34.405558120998,-34.405558120998,                    67P     68
34.2972638271011,34.2972638271011,1.,1.,1197.79891967773,             67P     69
449.701080322266,23.,510.770700196743,449.701080322266,23.,           67P     70
-34.405558120998,34.2972638271011,0.,0.,0.;                           67P     71
126,2,2,0,0,0,0,1.77635683940025D-16,1.77635683940025D-16,            69P     72
1.77635683940025D-16,0.110716193294353,0.110716193294353,             69P     73
0.110716193294353,1.,0.998468131830973,1.,510.770700196743,           69P     74
449.701080322266,-23.,499.687757257775,449.701080322266,-23.,         69P     75
488.672672733921,449.701080322266,-21.7754441128289,                  69P     76
1.77635683940025D-16,0.110716193294353,0.,0.,0.;                      69P     77
126,4,2,0,0,0,0,-1.5707963267949,-1.5707963267949,                    71P     78
-1.5707963267949,0.,0.,1.5707963267949,1.5707963267949,               71P     79
1.5707963267949,1.,0.70710678118655,1.,0.70710678118655,1.,           71P     80
488.672672733921,449.701080322266,-21.7754441128289,                  71P     81
488.672672733921,427.925636209437,-21.7754441128289,                  71P     82
488.672672733921,427.925636209437,1.73472347597681D-17,               71P     83
488.672672733921,427.925636209437,21.7754441128289,                   71P     84
488.672672733921,449.701080322266,21.7754441128289,                   71P     85
-1.5707963267949,1.5707963267949,0.,0.,0.;                            71P     86
126,2,2,0,0,0,0,-0.110716193294353,-0.110716193294353,                73P     87
-0.110716193294353,-1.77635683940025D-16,-1.77635683940025D-16,       73P     88
-1.77635683940025D-16,1.,0.998468131830973,1.,488.672672733921,       73P     89
449.701080322266,21.7754441128289,499.687757257775,                   73P     90
449.701080322266,23.,510.770700196743,449.701080322266,23.,           73P     91
-0.110716193294353,-1.77635683940025D-16,0.,0.,0.;                    73P     92
126,1,1,0,0,1,0,-9.50865211577047,-9.50865211577047,                  75P     93
8.40035782187361,8.40035782187361,1.,1.,310.679102535108,             75P     94
449.701080322266,-1.9877544411283,488.672672733921,                   75P     95
449.701080322266,-21.7754441128289,-9.50865211577047,                 75P     96
8.40035782187361,0.,0.,0.;                                            75P     97
126,4,2,0,0,0,0,4.71238898038469,4.71238898038469,                    77P     98
4.71238898038469,6.28318530717959,6.28318530717959,                   77P     99
7.85398163397448,7.85398163397448,7.85398163397448,1.,                77P    100
0.707106781186514,1.,0.707106781186513,1.,310.679102535108,           77P    101
449.701080322266,-1.9877544411283,310.679102535108,                   77P    102
447.713325881137,-1.9877544411283,310.679102535108,                   77P    103
447.713325881137,-4.69512188003974D-16,310.679102535108,              77P    104
447.713325881137,1.9877544411283,310.679102535108,                    77P    105
449.701080322266,1.9877544411283,4.71238898038469,                    77P    106
7.85398163397448,0.,0.,0.;                                            77P    107
126,1,1,0,0,1,0,-8.40035782187361,-8.40035782187361,                  79P    108
9.50865211577047,9.50865211577047,1.,1.,488.672672733921,             79P    109
449.701080322266,21.7754441128289,310.679102535108,                   79P    110
449.701080322266,1.9877544411283,-8.40035782187361,                   79P    111
9.50865211577047,0.,0.,0.;                                            79P    112
126,4,2,0,0,0,0,-3.03087646029546,-3.03087646029546,                  81P    113
-3.03087646029546,-1.5707963267949,-1.5707963267949,                  81P    114
-0.11071619329433,-0.11071619329433,-0.11071619329433,1.,             81P    115
0.745147682447616,1.,0.745147682447615,1.,310.679102535108,           81P    116
449.701080322266,1.9877544411283,308.900082809736,                    81P    117
449.701080322266,1.78997937427525,308.900082809736,                   81P    118
449.701080322266,-2.6124255799288D-16,308.900082809736,               81P    119
449.701080322266,-1.78997937427525,310.679102535108,                  81P    120
449.701080322266,-1.9877544411283,-3.03087646029546,                  81P    121
-0.11071619329433,0.,0.,0.;                                           81P    122
126,1,1,0,0,1,0,-2.45,-2.45,0.15,0.15,1.,1.,1207.79891967773,         83P    123
449.701080322266,-13.,1207.79891967773,449.701080322266,13.,          83P    124
-2.45,0.15,0.,0.,0.;                                                  83P    125
126,1,1,0,0,1,0,0.,0.,120.,120.,1.,1.,-849.701080322266,              85P    126
449.701080322265,-600.,-849.701080322266,449.701080322265,600.,       85P    127
0.,120.,0.,0.,0.;                                                     85P    128
126,1,1,0,0,1,0,0.,0.,60.,60.,1.,1.,-849.701080322266,                87P    129
449.701080322265,-600.,-849.701080322266,-150.298919677735,           87P    130
-600.,0.,60.,0.,0.,0.;                                                87P    131
126,1,1,0,0,1,0,-120.,-120.,0.,0.,1.,1.,-849.701080322266,            89P    132
-150.298919677735,600.,-849.701080322266,-150.298919677735,           89P    133
-600.,-120.,0.,0.,0.,0.;                                              89P    134
126,1,1,0,0,1,0,0.,0.,60.,60.,1.,1.,-849.701080322266,                91P    135
449.701080322265,600.,-849.701080322266,-150.298919677735,600.,       91P    136
0.,60.,0.,0.,0.;                                                      91P    137
126,1,1,0,0,1,0,0.,0.,320.,320.,1.,1.,-849.701080322266,              93P    138
449.701080322265,600.,2350.29891967773,449.701080322266,600.,0.,      93P    139
320.,0.,0.,0.;                                                        93P    140
126,1,1,0,0,1,0,-320.,-320.,0.,0.,1.,1.,2350.29891967773,             95P    141
-150.298919677734,600.,-849.701080322266,-150.298919677735,600.,      95P    142
-320.,0.,0.,0.,0.;                                                    95P    143
126,1,1,0,0,1,0,0.,0.,60.,60.,1.,1.,2350.29891967773,                 97P    144
449.701080322266,600.,2350.29891967773,-150.298919677734,600.,        97P    145
0.,60.,0.,0.,0.;                                                      97P    146
126,1,1,0,0,1,0,0.,0.,120.,120.,1.,1.,2350.29891967773,               99P    147
449.701080322266,600.,2350.29891967773,449.701080322266,-600.,        99P    148
0.,120.,0.,0.,0.;                                                     99P    149
126,1,1,0,0,1,0,-120.,-120.,0.,0.,1.,1.,2350.29891967773,            101P    150
-150.298919677734,-600.,2350.29891967773,-150.298919677734,600.,     101P    151
-120.,0.,0.,0.,0.;                                                   101P    152
126,1,1,0,0,1,0,0.,0.,60.,60.,1.,1.,2350.29891967773,                103P    153
449.701080322266,-600.,2350.29891967773,-150.298919677734,-600.,     103P    154
0.,60.,0.,0.,0.;                                                     103P    155
126,1,1,0,0,1,0,0.,0.,320.,320.,1.,1.,2350.29891967773,              105P    156
449.701080322266,-600.,-849.701080322266,449.701080322265,-600.,     105P    157
0.,320.,0.,0.,0.;                                                    105P    158
126,1,1,0,0,1,0,-320.,-320.,0.,0.,1.,1.,-849.701080322266,           107P    159
-150.298919677735,-600.,2350.29891967773,-150.298919677734,          107P    160
-600.,-320.,0.,0.,0.,0.;                                             107P    161
128,2,4,2,2,0,0,0,0,0,-1.5707963267949,-1.5707963267949,             109P    162
-1.5707963267949,5.10702591327573D-16,5.10702591327573D-16,          109P    163
5.10702591327573D-16,0.,0.,0.,1.5707963267949,1.5707963267949,       109P    164
3.14159265358979,3.14159265358979,3.14159265358979,1.,               109P    165
0.707106781186563,1.,0.707106781186548,0.500000000000011,            109P    166
0.707106781186548,1.,0.707106781186563,1.,0.707106781186548,         109P    167
0.500000000000011,0.707106781186548,1.,0.707106781186563,1.,         109P    168
1207.79891967773,449.701080322266,-13.,1207.79891967773,             109P    169
449.701080322266,-23.,1197.79891967773,449.701080322266,-23.,        109P    170
1207.79891967773,436.701080322266,-13.,1207.79891967773,             109P    171
426.701080322266,-23.,1197.79891967773,426.701080322266,-23.,        109P    172
1207.79891967773,436.701080322266,1.73472347597681D-17,              109P    173
1207.79891967773,426.701080322266,1.73472347597681D-17,              109P    174
1197.79891967773,426.701080322266,1.73472347597681D-17,              109P    175
1207.79891967773,436.701080322266,13.,1207.79891967773,              109P    176
426.701080322266,23.,1197.79891967773,426.701080322266,23.,          109P    177
1207.79891967773,449.701080322266,13.,1207.79891967773,              109P    178
449.701080322266,23.,1197.79891967773,449.701080322266,23.,          109P    179
-1.5707963267949,5.10702591327573D-16,0.,3.14159265358979;           109P    180
128,1,4,1,2,0,0,0,0,0,-14.9589383134774,-14.9589383134774,           111P    181
14.91185383787,14.91185383787,-3.14159265358979,                     111P    182
-3.14159265358979,-3.14159265358979,-1.5707963267949,                111P    183
-1.5707963267949,1.42592675503213D-15,1.42592675503213D-15,          111P    184
1.42592675503213D-15,1.,1.,0.707106781186547,0.707106781186547,      111P    185
1.,1.,0.707106781186547,0.707106781186547,1.,1.,                     111P    186
1197.79891967773,449.701080322266,-23.,510.770700196743,             111P    187
449.701080322266,-23.,1197.79891967773,426.701080322266,-23.,        111P    188
510.770700196743,426.701080322266,-23.,1197.79891967773,             111P    189
426.701080322266,1.73472347597681D-17,510.770700196743,              111P    190
426.701080322266,1.73472347597681D-17,1197.79891967773,              111P    191
426.701080322266,23.,510.770700196743,426.701080322266,23.,          111P    192
1197.79891967773,449.701080322266,23.,510.770700196743,              111P    193
449.701080322266,23.,-14.9589383134774,14.91185383787,               111P    194
-3.14159265358979,1.42592675503213D-15;                              111P    195
128,2,4,2,2,0,0,0,0,0,0.,0.,0.,0.110716193294354,                    113P    196
0.110716193294354,0.110716193294354,-2.25333993289902D-16,           113P    197
-2.25333993289902D-16,-2.25333993289902D-16,1.5707963267949,         113P    198
1.5707963267949,3.14159265358979,3.14159265358979,                   113P    199
3.14159265358979,1.,0.998468131830973,1.,0.707106781186547,          113P    200
0.706023586816345,0.707106781186547,1.,0.998468131830973,1.,         113P    201
0.707106781186547,0.706023586816345,0.707106781186547,1.,            113P    202
0.998468131830973,1.,510.770700196743,449.701080322266,-23.,         113P    203
499.687757257775,449.701080322266,-23.,488.672672733921,             113P    204
449.701080322266,-21.7754441128289,510.770700196743,                 113P    205
426.701080322266,-23.,499.687757257775,426.701080322266,-23.,        113P    206
488.672672733921,427.925636209437,-21.7754441128289,                 113P    207
510.770700196743,426.701080322266,1.73472347597681D-17,              113P    208
499.687757257775,426.701080322266,1.73472347597681D-17,              113P    209
488.672672733921,427.925636209437,1.73472347597681D-17,              113P    210
510.770700196743,426.701080322266,23.,499.687757257775,              113P    211
426.701080322266,23.,488.672672733921,427.925636209437,              113P    212
21.7754441128289,510.770700196743,449.701080322266,23.,              113P    213
499.687757257775,449.701080322266,23.,488.672672733921,              113P    214
449.701080322266,21.7754441128289,0.,0.110716193294354,              113P    215
-2.25333993289902D-16,3.14159265358979;                              113P    216
128,1,4,1,2,0,0,0,0,0,-6.72357961710008,-6.72357961710008,           115P    217
7.61064955890539,7.61064955890539,-3.1415926535898,                  115P    218
-3.1415926535898,-3.1415926535898,-1.5707963267949,                  115P    219
-1.5707963267949,1.06581410364015D-14,1.06581410364015D-14,          115P    220
1.06581410364015D-14,1.,1.,0.707106781186544,0.707106781186544,      115P    221
1.,1.,0.707106781186544,0.707106781186544,1.,1.,                     115P    222
488.672672733921,449.701080322266,-21.7754441128289,                 115P    223
310.679102535108,449.701080322266,-1.9877544411283,                  115P    224
488.672672733921,427.925636209437,-21.775444112829,                  115P    225
310.679102535108,447.713325881137,-1.98775444112831,                 115P    226
488.672672733921,427.925636209437,1.73472347597681D-17,              115P    227
310.679102535108,447.713325881137,1.73472347597681D-17,              115P    228
488.672672733921,427.925636209437,21.775444112829,                   115P    229
310.679102535108,447.713325881137,1.98775444112831,                  115P    230
488.672672733921,449.701080322266,21.7754441128289,                  115P    231
310.679102535108,449.701080322266,1.9877544411283,                   115P    232
-6.72357961710008,7.61064955890539,-3.1415926535898,                 115P    233
1.06581410364015D-14;                                                115P    234
128,4,2,2,2,0,0,0,0,0,-1.46008013350057,-1.46008013350057,           117P    235
-1.46008013350057,0.,0.,1.46008013350057,1.46008013350057,           117P    236
1.46008013350057,-1.5707963267949,-1.5707963267949,                  117P    237
-1.5707963267949,-0.103221653509947,-0.103221653509947,              117P    238
-0.103221653509947,1.,0.745147682447568,1.,0.745147682447569,1.,     117P    239
0.742643404224252,0.553379011542673,0.742643404224252,               117P    240
0.553379011542674,0.742643404224252,1.,0.745147682447568,1.,         117P    241
0.745147682447569,1.,310.679102535108,449.701080322266,              117P    242
-1.98775444112832,308.900082809736,449.701080322266,                 117P    243
-1.78997937427526,308.900082809736,449.701080322266,                 117P    244
-1.38777878078145D-16,308.900082809736,449.701080322266,             117P    245
1.78997937427526,310.679102535108,449.701080322266,                  117P    246
1.98775444112832,310.679102535108,449.501808865462,                  117P    247
-1.98775444112832,308.900082809736,447.897557748685,                 117P    248
-1.78997937427526,308.900082809736,447.897557748685,                 117P    249
-1.38777878078145D-16,308.900082809736,447.897557748685,             117P    250
1.78997937427526,310.679102535108,449.501808865462,                  117P    251
1.98775444112832,310.877313344388,449.481276243089,                  117P    252
-1.98775444112832,310.694005906385,447.711725575141,                 117P    253
-1.78997937427526,310.694005906385,447.711725575141,                 117P    254
-1.38777878078145D-16,310.694005906385,447.711725575141,             117P    255
1.78997937427526,310.877313344388,449.481276243089,                  117P    256
1.98775444112832,-1.46008013350057,1.46008013350057,                 117P    257
-1.5707963267949,-0.103221653509947;                                 117P    258
128,1,1,1,1,0,0,1,0,0,-3.601,-3.601,-0.999,-0.999,-0.001,-0.001,     119P    259
1.301,1.301,1.,1.,1.,1.,1207.79891967773,449.711080322266,13.01,     119P    260
1207.79891967773,449.711080322266,-13.01,1207.79891967773,           119P    261
436.691080322266,13.01,1207.79891967773,436.691080322266,-13.01,     119P    262
-3.601,-0.999,-0.001,1.301;                                          119P    263
128,1,1,1,1,0,0,1,0,0,-0.001,-0.001,120.001,120.001,-0.001,          121P    264
-0.001,60.001,60.001,1.,1.,1.,1.,-849.701080322266,                  121P    265
449.711080322265,600.01,-849.701080322266,449.711080322265,          121P    266
-600.01,-849.701080322266,-150.308919677735,600.01,                  121P    267
-849.701080322266,-150.308919677735,-600.01,-0.001,120.001,          121P    268
-0.001,60.001;                                                       121P    269
128,1,1,1,1,0,0,1,0,0,-0.001,-0.001,320.001,320.001,                 123P    270
-0.00100000000000355,-0.00100000000000355,60.001,60.001,1.,1.,       123P    271
1.,1.,2350.30891967773,449.711080322266,600.,-849.711080322265,      123P    272
449.711080322265,600.,2350.30891967773,-150.308919677734,600.,       123P    273
-849.711080322265,-150.308919677735,600.,-0.001,320.001,             123P    274
-0.00100000000000355,60.001;                                         123P    275
128,1,1,1,1,0,0,1,0,0,-0.001,-0.001,120.001,120.001,-0.001,          125P    276
-0.001,60.001,60.001,1.,1.,1.,1.,2350.29891967773,                   125P    277
449.711080322266,-600.01,2350.29891967773,449.711080322266,          125P    278
600.01,2350.29891967773,-150.308919677734,-600.01,                   125P    279
2350.29891967773,-150.308919677734,600.01,-0.001,120.001,-0.001,     125P    280
60.001;                                                              125P    281
128,1,1,1,1,0,0,1,0,0,-0.00100000000000666,-0.00100000000000666,     127P    282
320.001,320.001,-0.00100000000000355,-0.00100000000000355,           127P    283
60.001,60.001,1.,1.,1.,1.,-849.711080322266,449.711080322265,        127P    284
-600.,2350.30891967773,449.711080322266,-600.,-849.711080322266,     127P    285
-150.308919677735,-600.,2350.30891967773,-150.308919677734,          127P    286
-600.,-0.00100000000000666,320.001,-0.00100000000000355,60.001;      127P    287
128,1,1,1,1,0,0,1,0,0,-60.001,-60.001,60.001,60.001,-160.001,        129P    288
-160.001,160.001,160.001,1.,1.,1.,1.,-849.711080322266,              129P    289
-150.298919677735,600.01,-849.711080322266,-150.298919677735,        129P    290
-600.01,2350.30891967773,-150.298919677734,600.01,                   129P    291
2350.30891967773,-150.298919677734,-600.01,-60.001,60.001,           129P    292
-160.001,160.001;                                                    129P    293
128,1,1,1,1,0,0,1,0,0,-160.001,-160.001,160.001,160.001,-60.001,     131P    294
-60.001,60.001,60.001,1.,1.,1.,1.,2350.30891967773,                  131P    295
449.701080322266,-600.01,-849.711080322266,449.701080322265,         131P    296
-600.01,2350.30891967773,449.701080322266,600.01,                    131P    297
-849.711080322266,449.701080322265,600.01,-160.001,160.001,          131P    298
-60.001,60.001;                                                      131P    299
502,18,1207.79891967773,449.701080322266,-13.,1197.79891967773,      133P    300
449.701080322266,-23.,1197.79891967773,449.701080322266,23.,         133P    301
1207.79891967773,449.701080322266,13.,510.770700196743,              133P    302
449.701080322266,-23.,510.770700196743,449.701080322266,23.,         133P    303
488.672672733921,449.701080322266,-21.7754441128289,                 133P    304
488.672672733921,449.701080322266,21.7754441128289,                  133P    305
310.679102535108,449.701080322266,-1.9877544411283,                  133P    306
310.679102535108,449.701080322266,1.9877544411283,                   133P    307
-849.701080322266,449.701080322265,-600.,-849.701080322266,          133P    308
449.701080322265,600.,-849.701080322266,-150.298919677735,-600.,     133P    309
-849.701080322266,-150.298919677735,600.,2350.29891967773,           133P    310
449.701080322266,600.,2350.29891967773,-150.298919677734,600.,       133P    311
2350.29891967773,449.701080322266,-600.,2350.29891967773,            133P    312
-150.298919677734,-600.;                                             133P    313
504,27,55,133,1,133,2,57,133,2,133,3,59,133,3,133,4,61,133,4,        135P    314
133,1,63,133,5,133,2,65,133,6,133,5,67,133,3,133,6,69,133,5,133,     135P    315
7,71,133,7,133,8,73,133,8,133,6,75,133,9,133,7,77,133,9,133,10,      135P    316
79,133,8,133,10,81,133,10,133,9,83,133,1,133,4,85,133,11,133,12,     135P    317
87,133,11,133,13,89,133,14,133,13,91,133,12,133,14,93,133,12,        135P    318
133,15,95,133,16,133,14,97,133,15,133,16,99,133,15,133,17,101,       135P    319
133,18,133,16,103,133,17,133,18,105,133,17,133,11,107,133,13,        135P    320
133,18;                                                              135P    321
406,1,5HBody1;                                                       137P    322
314,62.7450980392157,62.7450980392157,62.7450980392157,13HSteel      139P    323
- Satin;                                                             139P    324
S      1G      2D    140P    324                                        T      1
